<svg width="24" height="24" viewBox="0 0 24 24" fill="none" xmlns="http://www.w3.org/2000/svg">
<path d="M3.07445 3C3.66176 3.03364 4.22426 3.05886 4.76195 3.07568C5.29963 3.0925 5.78768 3.10091 6.2261 3.10091C6.7307 3.10091 7.2477 3.0925 7.77711 3.07568C8.30653 3.05886 8.84835 3.03364 9.40257 3V3.87036H9.06756C8.38925 3.87036 7.93015 4.05536 7.69026 4.42537C7.45864 4.78697 7.34283 5.75823 7.34283 7.33917V11.0603C7.88052 11.0771 8.44715 11.0897 9.04274 11.0981C9.6466 11.1065 10.4862 11.1107 11.5616 11.1107C12.6618 11.1107 13.6172 11.1065 14.4278 11.0981C15.2468 11.0897 16.0781 11.0771 16.9219 11.0603V7.541C16.9219 5.86755 16.8019 4.83742 16.562 4.4506C16.3304 4.06377 15.8755 3.87036 15.1972 3.87036H14.8621V3C15.4164 3.03364 15.9582 3.05886 16.4876 3.07568C17.0253 3.0925 17.5506 3.10091 18.0634 3.10091C18.5018 3.10091 18.9858 3.0925 19.5152 3.07568C20.0446 3.05886 20.6029 3.03364 21.1903 3V3.87036C21.1489 3.87036 21.091 3.86615 21.0165 3.85774C20.9421 3.84933 20.8883 3.84513 20.8552 3.84513C20.2183 3.84513 19.784 4.05116 19.5524 4.46321C19.3208 4.86685 19.205 5.73721 19.205 7.07428C19.205 7.32656 19.2091 7.80589 19.2174 8.51226C19.2256 9.21864 19.2298 9.79888 19.2298 10.253V13.6083C19.2298 14.0624 19.2256 14.6468 19.2174 15.3616C19.2091 16.068 19.205 16.5515 19.205 16.8122C19.205 18.1913 19.3208 19.0911 19.5524 19.5116C19.784 19.932 20.2183 20.1423 20.8552 20.1423C20.971 20.1423 21.0579 20.1423 21.1158 20.1423C21.182 20.1338 21.2399 20.1296 21.2895 20.1296V21C20.636 20.9664 20.028 20.9411 19.4655 20.9243C18.9113 20.9075 18.4439 20.8991 18.0634 20.8991C17.6167 20.8991 17.1121 20.9075 16.5496 20.9243C15.9954 20.9411 15.3998 20.9664 14.7629 21V20.117C14.8125 20.117 14.8869 20.1212 14.9862 20.1296C15.0855 20.1381 15.1558 20.1423 15.1972 20.1423C15.8755 20.1423 16.3304 19.953 16.562 19.5746C16.8019 19.1962 16.9219 18.2838 16.9219 16.8374V12.5487H16.7606C14.6347 12.5151 13.0795 12.4982 12.0951 12.4982C11.3506 12.4982 10.6392 12.5067 9.96094 12.5235C9.86995 12.5235 9.82031 12.5235 9.81204 12.5235C9.45634 12.5235 9.07169 12.5277 8.65809 12.5361C8.24449 12.5361 7.80607 12.5403 7.34283 12.5487V16.5599C7.34283 18.1745 7.46278 19.1752 7.70267 19.562C7.94256 19.9488 8.40579 20.1423 9.09237 20.1423C9.13373 20.1423 9.20404 20.1381 9.30331 20.1296C9.40257 20.1212 9.47702 20.117 9.52665 20.117V21C8.88971 20.9664 8.28998 20.9411 7.72748 20.9243C7.17325 20.9075 6.67279 20.8991 6.2261 20.8991C5.84559 20.8991 5.37822 20.9075 4.82399 20.9243C4.26976 20.9411 3.66176 20.9664 3 21V20.1296C3.04963 20.1296 3.1034 20.1338 3.16131 20.1423C3.22748 20.1423 3.31434 20.1423 3.42188 20.1423C4.0671 20.1423 4.50551 19.932 4.73713 19.5116C4.96875 19.0911 5.08456 18.1913 5.08456 16.8122C5.08456 16.5515 5.08042 16.068 5.07215 15.3616C5.06388 14.6468 5.05974 14.0624 5.05974 13.6083V10.253C5.05974 9.83252 5.06388 9.29853 5.07215 8.65102C5.08042 7.99509 5.08456 7.5494 5.08456 7.31395C5.08456 5.85914 4.96461 4.91731 4.72472 4.48844C4.49311 4.05957 4.05055 3.84513 3.39706 3.84513C3.37224 3.84513 3.32261 3.84933 3.24816 3.85774C3.17371 3.86615 3.11581 3.87036 3.07445 3.87036V3Z" fill="black"/>
</svg>
